<svg xmlns="http://www.w3.org/2000/svg" viewBox="0 0 1502.664 512">
  <defs>
    <linearGradient id="a" x2="1" y1="-.889" y2="1.889" gradientUnits="objectBoundingBox">
      <stop offset="0" stop-color="#2383ae"/>
      <stop offset="1" stop-color="#6dd7b9"/>
    </linearGradient>
  </defs>
  <path fill="#e53e3e" d="M746.085 376.134C667.408 307.29 612 270.824 612 212.82c0-43.863 31.271-79.82 74.091-79.82 29.715 0 51.764 18.249 65.375 44.136C765.076 151.25 787.125 133 816.841 133c42.825 0 74.091 35.964 74.091 79.82 0 58-55.335 94.407-134.085 163.313a8.172 8.172 0 01-10.762.001z"/>
  <path fill="#2d3748" d="M420.975 60.883L220.145.633a15 15 0 00-8.622 0L10.689 60.883A15 15 0 000 75.25v220.916c0 28.734 11.633 58.148 34.574 87.425 17.521 22.36 41.762 44.813 72.047 66.736a646.332 646.332 0 00103.084 60.363 14.993 14.993 0 0012.258 0 646.411 646.411 0 00103.082-60.363c30.285-21.923 54.525-44.376 72.047-66.736 22.941-29.276 34.572-58.69 34.572-87.425V75.25a15 15 0 00-10.689-14.367z"/>
  <path fill="#55a5a9" d="M185.037 375.879c-40.546-.018-75.654-27.878-84.2-67.284a73.9 73.9 0 018.368-53.973c1.641-2.861 1.737-4.966.459-8.067-12.424-30.132-9.167-58.188 12.33-83.222a73.859 73.859 0 0115.58-13.21c21.141-13.844 42.703-27.047 63.845-40.893 47.784-31.3 116.508-4.661 129.136 54.538 4.107 19.248.978 37.672-9.116 54.707a5.392 5.392 0 00-.343 5.665c12.2 27.921 10.243 54.6-7.629 79.62a69.738 69.738 0 01-19.562 18.07q-32.33 20.642-64.69 41.232a79.65 79.65 0 01-44.178 12.817zm-49.962-100.481c-1.1 5.067-2.592 9.436-2.912 13.888-1.462 20.4 6.9 36.26 24.021 46.891s35.295 11.345 52.69.8c22.624-13.727 44.842-28.135 66.977-42.641 13.72-8.993 20.451-22.319 20.037-38.627-.5-19.505-10.112-34.059-27.079-43.163-16.891-9.061-34.1-8.682-50.693 1.3-8.239 4.954-16.218 10.336-24.361 15.452a15.281 15.281 0 01-21.537-4.79c-4.485-7.162-2.314-15.043 5.564-20.068q31.342-19.989 62.688-39.974c5.329-3.416 10.767-3.981 16.281-.875 5.577 3.139 8.352 8.042 7.906 14.531-.113 1.646.29 2.463 2 2.965a84.066 84.066 0 0127.148 13.804 23.308 23.308 0 002.5 1.382c1.039-4.911 2.521-9.3 2.824-13.775 1.409-20.41-7.019-36.248-24.162-46.831s-35.295-11.234-52.69-.65c-22.434 13.674-44.472 27.974-66.482 42.309-13.846 9.023-20.761 22.3-20.4 38.741.426 19.515 10.011 34.107 26.947 43.244s34.266 8.788 50.95-1.311c8.14-4.929 16.079-10.183 24.094-15.315a14.611 14.611 0 019.85-2.6 15.622 15.622 0 0113.7 11.849c1.457 6.209-1.1 11.519-7.563 15.643q-31.219 19.904-62.434 39.814c-5.433 3.484-10.944 4.092-16.541.882-5.546-3.182-8.319-8.133-7.747-14.609.182-2.072-.9-2.473-2.458-2.942a83.563 83.563 0 01-26.116-13.251c-.698-.528-1.444-1.002-3.002-2.073z"/>
  <path fill="#fdfefe" d="M135.075 275.397c1.558 1.071 2.3 1.545 3.008 2.075a83.562 83.562 0 0026.11 13.251c1.555.469 2.64.87 2.458 2.942-.565 6.477 2.2 11.428 7.747 14.609 5.6 3.209 11.108 2.6 16.541-.882q31.17-19.99 62.436-39.815c6.469-4.124 9.023-9.434 7.563-15.643a15.609 15.609 0 00-13.7-11.849 14.6 14.6 0 00-9.85 2.6c-8.014 5.133-15.953 10.387-24.094 15.315-16.684 10.1-34 10.457-50.95 1.311s-26.521-23.728-26.947-43.244c-.361-16.437 6.555-29.718 20.4-38.741 22.011-14.345 44.05-28.644 66.488-42.311 17.4-10.588 35.547-9.93 52.69.65s25.571 26.421 24.162 46.826c-.31 4.472-1.785 8.864-2.824 13.775a24.375 24.375 0 01-2.5-1.382 83.788 83.788 0 00-27.154-13.808c-1.714-.5-2.118-1.319-2-2.965.446-6.489-2.329-11.393-7.906-14.531-5.514-3.106-10.951-2.541-16.281.875q-31.301 20.053-62.69 39.983c-7.878 5.024-10.049 12.905-5.564 20.068a15.265 15.265 0 0021.537 4.79c8.143-5.115 16.122-10.5 24.361-15.452 16.6-9.981 33.812-10.359 50.693-1.3 16.967 9.114 26.582 23.668 27.086 43.173.413 16.309-6.318 29.635-20.037 38.627-22.142 14.506-44.36 28.914-66.984 42.641-17.4 10.556-35.572 9.832-52.69-.8s-25.483-26.5-24.021-46.891c.321-4.471 1.816-8.83 2.912-13.897z"/>
  <g>
    <path fill="#2d3748" d="M1491.975 60.883L1291.145.633a15 15 0 00-8.622 0l-200.834 60.25A15 15 0 001071 75.25v220.916c0 28.734 11.633 58.148 34.574 87.425 17.521 22.36 41.762 44.813 72.047 66.736a646.332 646.332 0 00103.084 60.363 14.993 14.993 0 0012.258 0 646.411 646.411 0 00103.082-60.363c30.285-21.923 54.525-44.376 72.047-66.736 22.941-29.276 34.572-58.69 34.572-87.425V75.25a15 15 0 00-10.689-14.367z"/>
    <path fill="url(#a)" fill-rule="evenodd" d="M67.9 67.117Q81.474 12.8 135.793 12.8c54.317 0 61.107 40.738 88.266 47.528q27.161 6.792 47.528-20.369-13.577 54.315-67.9 54.317c-54.317 0-61.107-40.738-88.266-47.528Q88.264 39.957 67.9 67.117zM0 148.593q13.577-54.315 67.9-54.317c54.317 0 61.107 40.738 88.266 47.528q27.161 6.792 47.528-20.369-13.577 54.315-67.9 54.317c-54.317 0-61.107-40.738-88.266-47.528Q20.367 121.432 0 148.593z" transform="translate(1151 142.2)"/>
  </g>
</svg>